<svg width="27" height="30" viewBox="0 0 27 30" fill="none" xmlns="http://www.w3.org/2000/svg">
<path fill-rule="evenodd" clip-rule="evenodd" d="M11.1525 0.904001C12.4854 -0.301335 14.5146 -0.301333 15.8475 0.904002L25.8475 9.94679C26.5813 10.6104 27 11.5535 27 12.5428V26.3035C27 28.2365 25.433 29.8035 23.5 29.8035H3.5C1.567 29.8035 0 28.2365 0 26.3035V12.5428C0 11.5535 0.418696 10.6104 1.15249 9.94679L11.1525 0.904001ZM13.8354 3.12914C13.6449 2.95695 13.3551 2.95695 13.1646 3.12914L3.16464 12.1719C3.05981 12.2667 3 12.4015 3 12.5428V26.3035C3 26.5797 3.22386 26.8035 3.5 26.8035H8V18.9522C8 17.0192 9.567 15.4522 11.5 15.4522H15.5C17.433 15.4522 19 17.0192 19 18.9522V26.8035H23.5C23.7761 26.8035 24 26.5797 24 26.3035V12.5428C24 12.4015 23.9402 12.2667 23.8354 12.1719L13.8354 3.12914ZM16 26.8035V18.9522C16 18.676 15.7761 18.4522 15.5 18.4522H11.5C11.2239 18.4522 11 18.676 11 18.9522V26.8035H16Z" fill="#E4027C"/>
</svg>
