<svg width="25" height="31" viewBox="0 0 25 31" fill="none" xmlns="http://www.w3.org/2000/svg">
<path fill-rule="evenodd" clip-rule="evenodd" d="M19.3207 18.2328C20.5765 16.6366 21.3257 14.6162 21.3257 12.4091C21.3257 7.26167 17.2304 3.08885 12.1786 3.08885C7.12676 3.08885 3.03146 7.26167 3.03146 12.4091C3.03146 14.616 3.78047 16.6363 5.03606 18.2324V18.2324L5.04509 18.2439C5.31093 18.5813 5.55703 18.9366 5.81273 19.282C6.25681 19.8819 6.88304 20.7244 7.61065 21.6933C8.96653 23.4989 10.6603 25.7247 12.1797 27.6357C13.7038 25.7206 15.4014 23.4914 16.76 21.6834C17.4889 20.7134 18.1161 19.8701 18.5608 19.2697C18.8152 18.9262 19.0566 18.5685 19.3207 18.2328ZM21.6904 20.1684C21.6904 20.1684 21.6879 20.1719 21.686 20.1744C21.6084 20.2802 20.8956 21.2506 19.8628 22.6326C18.3306 24.6829 16.0939 27.6392 14.1816 30.0225C13.1355 31.3262 11.222 31.3257 10.1766 30.0215C6.90812 25.944 2.68097 20.1773 2.68097 20.1773L2.67111 20.1648C0.999736 18.0404 0 15.3437 0 12.4091C0 5.55575 5.45253 0 12.1786 0C18.9046 0 24.3571 5.55575 24.3571 12.4091C24.3571 14.235 23.9701 15.9688 23.2751 17.5299C22.8546 18.4744 22.3215 19.3556 21.6931 20.1558L21.6887 20.1615L21.686 20.1648H21.6931L21.6904 20.1684Z" fill="#FFA400"/>
<path fill-rule="evenodd" clip-rule="evenodd" d="M12.1786 13.6548C12.9938 13.6548 13.6548 12.9938 13.6548 12.1786C13.6548 11.3633 12.9938 10.7024 12.1786 10.7024C11.3633 10.7024 10.7024 11.3633 10.7024 12.1786C10.7024 12.9938 11.3633 13.6548 12.1786 13.6548ZM16.6071 12.1786C16.6071 14.6244 14.6244 16.6071 12.1786 16.6071C9.73274 16.6071 7.75 14.6244 7.75 12.1786C7.75 9.73274 9.73274 7.75 12.1786 7.75C14.6244 7.75 16.6071 9.73274 16.6071 12.1786Z" fill="#FFA400"/>
</svg>
