<svg width="28" height="31" viewBox="0 0 28 31" fill="none" xmlns="http://www.w3.org/2000/svg">
<path fill-rule="evenodd" clip-rule="evenodd" d="M13.7778 3.44444C11.8755 3.44444 10.3334 4.98657 10.3334 6.88888C10.3334 8.7912 11.8755 10.3333 13.7778 10.3333C15.6801 10.3333 17.2222 8.7912 17.2222 6.88888C17.2222 4.98657 15.6801 3.44444 13.7778 3.44444ZM6.88892 6.88888C6.88892 3.08426 9.97317 0 13.7778 0C17.5824 0 20.6667 3.08426 20.6667 6.88888C20.6667 10.6935 17.5824 13.7778 13.7778 13.7778C9.97317 13.7778 6.88892 10.6935 6.88892 6.88888Z" fill="#5B7CFD"/>
<path fill-rule="evenodd" clip-rule="evenodd" d="M8.61111 20.6666C5.75764 20.6666 3.44444 22.9798 3.44444 25.8333V29.2777C3.44444 30.2289 2.67338 30.9999 1.72222 30.9999C0.771065 30.9999 0 30.2289 0 29.2777V25.8333C0 21.0775 3.85532 17.2222 8.61111 17.2222H18.9444C23.7002 17.2222 27.5555 21.0775 27.5555 25.8333V29.2777C27.5555 30.2289 26.7845 30.9999 25.8333 30.9999C24.8822 30.9999 24.1111 30.2289 24.1111 29.2777V25.8333C24.1111 22.9798 21.7979 20.6666 18.9444 20.6666H8.61111Z" fill="#5B7CFD"/>
</svg>
