<svg width="27" height="27" viewBox="0 0 27 27" fill="none" xmlns="http://www.w3.org/2000/svg">
<path fill-rule="evenodd" clip-rule="evenodd" d="M13.5 24.3C19.4647 24.3 24.3 19.4647 24.3 13.5C24.3 7.53532 19.4647 2.7 13.5 2.7C7.53532 2.7 2.7 7.53532 2.7 13.5C2.7 19.4647 7.53532 24.3 13.5 24.3ZM13.5 27C20.9558 27 27 20.9558 27 13.5C27 6.04416 20.9558 0 13.5 0C6.04416 0 0 6.04416 0 13.5C0 20.9558 6.04416 27 13.5 27Z" fill="#44DCC8"/>
<circle cx="13.4999" cy="21.6" r="1.35" fill="#44DCC8"/>
<path fill-rule="evenodd" clip-rule="evenodd" d="M13.5 8.10002C12.3265 8.10002 11.3246 8.84941 10.9533 9.89991C10.7048 10.6029 9.93353 10.9713 9.23056 10.7229C8.5276 10.4744 8.15915 9.70311 8.40761 9.00014C9.14827 6.90462 11.1467 5.40002 13.5 5.40002C16.4823 5.40002 18.9 7.81769 18.9 10.8C18.9 13.3162 17.1791 15.4304 14.85 16.0299V17.55C14.85 18.2956 14.2456 18.9 13.5 18.9C12.7544 18.9 12.15 18.2956 12.15 17.55V14.85C12.15 14.1044 12.7544 13.5 13.5 13.5C14.9912 13.5 16.2 12.2912 16.2 10.8C16.2 9.30886 14.9912 8.10002 13.5 8.10002Z" fill="#44DCC8"/>
</svg>
